<svg width="50" height="29" viewBox="0 0 50 29" fill="none" xmlns="http://www.w3.org/2000/svg">
<rect width="50" height="29" rx="14.5" fill="#6948F7"/>
<path d="M22.8631 7.32812V10.8125H24.8631V12.0781H22.8631V15.5781H21.3787V7.32812H22.8631ZM11.7537 14.25C12.8397 14.25 14.0975 14.2422 15.41 14.2109V13.4219C13.8006 13.2734 12.8006 12.625 12.8162 11.5781C12.8006 10.4375 14.1131 9.76562 16.1444 9.76562C18.16 9.76562 19.4647 10.4375 19.4725 11.5781C19.4647 12.6172 18.4803 13.2656 16.8944 13.4219V14.1484C18.1444 14.0938 19.41 13.9922 20.5819 13.8281L20.7069 14.7969C17.6991 15.2891 14.3709 15.3125 11.91 15.3125L11.7537 14.25ZM12.1131 9.35938V8.32812H15.41V7.20312H16.8944V8.32812H20.1912V9.35938H12.1131ZM13.6131 17.2031V16.1719H22.8631V19.0938H15.1287V20.1562H23.3787V21.1875H13.6444V18.1406H21.3944V17.2031H13.6131ZM14.2225 11.5781C14.2225 12.1406 14.9491 12.4844 16.1444 12.4844C17.3241 12.4844 18.0584 12.1406 18.0506 11.5781C18.0584 11.0391 17.3241 10.7344 16.1444 10.7344C14.9491 10.7344 14.2225 11.0391 14.2225 11.5781ZM38.1369 14.1406V15.3281H25.3556V14.1406H31.0275V12.6562H26.9494V7.96875H36.5588V9.14062H28.4181V11.4688H36.6525V12.6562H32.465V14.1406H38.1369ZM26.8713 18.7812C26.8713 17.1562 28.6916 16.2422 31.7306 16.2344C34.7463 16.2422 36.5509 17.1562 36.5588 18.7812C36.5509 20.4062 34.7463 21.3203 31.7306 21.3281C28.6916 21.3203 26.8713 20.4062 26.8713 18.7812ZM28.3713 18.7812C28.3634 19.6797 29.59 20.1719 31.7306 20.1562C33.84 20.1719 35.0744 19.6797 35.0744 18.7812C35.0744 17.8984 33.84 17.3906 31.7306 17.3906C29.59 17.3906 28.3634 17.8984 28.3713 18.7812Z" fill="white"/>
</svg>
