<svg width="50" height="29" viewBox="0 0 50 29" fill="none" xmlns="http://www.w3.org/2000/svg">
<rect width="50" height="29" rx="14.5" fill="#FE5C2B"/>
<path d="M17.035 10.25C17.035 12.0625 18.3709 13.7656 20.535 14.4531L19.7694 15.6094C18.16 15.0781 16.9491 13.9766 16.3084 12.5781C15.6834 14.1016 14.4334 15.3047 12.7694 15.8906L12.0037 14.7188C14.1834 13.9766 15.5272 12.1641 15.535 10.25V9.64062H12.3944V8.4375H20.1131V9.64062H17.035V10.25ZM14.3006 21.0312V16.5938H15.8006V19.8281H23.8787V21.0312H14.3006ZM21.9725 17.5625V7.34375H23.4569V17.5625H21.9725ZM38.1681 18.4062V19.6562H25.3556V18.4062H30.9963V15.9531H26.9181V11.5H35.1369V9.53125H26.8869V8.3125H36.6056V12.6875H28.3869V14.7344H36.9338V15.9531H32.465V18.4062H38.1681Z" fill="white"/>
</svg>
