<svg width="50" height="29" viewBox="0 0 50 29" fill="none" xmlns="http://www.w3.org/2000/svg">
<rect width="50" height="29" rx="14.5" fill="#2CC9ED"/>
<path d="M17.2537 10.0312C17.2537 10.4688 17.3866 10.8828 17.6522 11.2734C17.9178 11.6641 18.298 12.0052 18.7928 12.2969C19.2928 12.5833 19.8787 12.7969 20.5506 12.9375L19.9412 14.0938C19.1444 13.9115 18.4543 13.6276 17.8709 13.2422C17.2876 12.8568 16.8397 12.3958 16.5272 11.8594C16.2199 12.4479 15.7694 12.9531 15.1756 13.375C14.5871 13.7917 13.884 14.0938 13.0662 14.2812L12.4412 13.125C13.1183 12.9792 13.7069 12.7526 14.2069 12.4453C14.7069 12.138 15.0897 11.776 15.3553 11.3594C15.6261 10.9427 15.7642 10.5 15.7694 10.0312H12.7537V8.85938H15.7694V7.35938H17.2537V8.85938H20.2537V10.0312H17.2537ZM11.8319 15.1406C13.6287 15.1406 15.2772 15.1172 16.7772 15.0703C18.2772 15.0182 19.7017 14.9062 21.0506 14.7344L21.16 15.8125C19.9673 16.0104 18.6704 16.151 17.2694 16.2344V20.9062H15.785V16.3125C14.759 16.3542 13.509 16.375 12.035 16.375L11.8319 15.1406ZM22.0194 7.34375H23.4881V21.3281H22.0194V7.34375ZM32.6994 17.875H26.1369V8.67188H32.6994V17.875ZM31.2619 16.6719V9.84375H27.6056V16.6719H31.2619ZM35.465 7.32812H36.9494V21.3594H35.465V7.32812Z" fill="white"/>
</svg>
