<svg width="85" height="32" viewBox="0 0 85 32" fill="none" xmlns="http://www.w3.org/2000/svg">
<path d="M6.70562 19.7396L4.33815 22.197V26.0554H1.56543V10.9666H4.33815V18.705L11.7178 10.9666H14.8318L8.56121 17.7134L15.2157 26.0554H11.9738L6.70562 19.7396Z" fill="black"/>
<path d="M25.5618 20.3647C25.5618 20.5516 25.5475 20.8174 25.5191 21.1623H16.5824C16.7388 22.0101 17.1441 22.6856 17.7982 23.1885C18.4664 23.6771 19.2912 23.9214 20.2723 23.9214C21.5235 23.9214 22.5544 23.5047 23.3649 22.6712L24.7939 24.331C24.282 24.9489 23.6351 25.4159 22.853 25.7321C22.071 26.0482 21.1894 26.2063 20.2083 26.2063C18.957 26.2063 17.855 25.9548 16.9024 25.4518C15.9497 24.9489 15.2103 24.2519 14.6842 23.361C14.1723 22.4556 13.9163 21.4353 13.9163 20.3001C13.9163 19.1792 14.1652 18.1733 14.6628 17.2823C15.1747 16.377 15.8786 15.6728 16.7744 15.1699C17.6702 14.6669 18.6797 14.4154 19.803 14.4154C20.9121 14.4154 21.9003 14.6669 22.7677 15.1699C23.6493 15.6585 24.3318 16.3554 24.8153 17.2608C25.3129 18.1517 25.5618 19.1864 25.5618 20.3647ZM19.803 16.571C18.9499 16.571 18.2247 16.8296 17.6275 17.347C17.0445 17.8499 16.6891 18.5253 16.5611 19.3732H23.0237C22.9099 18.5397 22.5615 17.8643 21.9786 17.347C21.3956 16.8296 20.6704 16.571 19.803 16.571Z" fill="black"/>
<path d="M37.0857 14.5448L31.7535 26.9823C31.2559 28.2325 30.6516 29.1091 29.9406 29.6121C29.2297 30.1294 28.3694 30.3881 27.3599 30.3881C26.7911 30.3881 26.2294 30.2946 25.6749 30.1078C25.1204 29.921 24.6653 29.6623 24.3099 29.3318L25.3763 27.3487C25.6322 27.593 25.9308 27.787 26.2721 27.9307C26.6276 28.0744 26.9831 28.1463 27.3385 28.1463C27.8078 28.1463 28.1917 28.0241 28.4903 27.7798C28.8031 27.5355 29.0875 27.126 29.3434 26.5512L29.5354 26.0985L24.5658 14.5448H27.3385L30.9217 23.0592L34.5263 14.5448H37.0857Z" fill="black"/>
<path d="M43.7216 14.4154C45.1577 14.4154 46.3094 14.8394 47.1768 15.6872C48.0441 16.5351 48.4778 17.7925 48.4778 19.4594V26.0554H45.8118V19.8043C45.8118 18.7984 45.5771 18.0439 45.1079 17.541C44.6387 17.0236 43.9704 16.765 43.103 16.765C42.1219 16.765 41.347 17.0668 40.7782 17.6703C40.2094 18.2595 39.9251 19.1145 39.9251 20.2354V26.0554H37.259V14.5448H39.7971V16.0321C40.2379 15.5004 40.7924 15.098 41.4607 14.825C42.129 14.5519 42.8826 14.4154 43.7216 14.4154Z" fill="black"/>
<path d="M61.0739 20.3647C61.0739 20.5516 61.0596 20.8174 61.0312 21.1623H52.0945C52.2509 22.0101 52.6562 22.6856 53.3102 23.1885C53.9785 23.6771 54.8033 23.9214 55.7844 23.9214C57.0356 23.9214 58.0665 23.5047 58.877 22.6712L60.306 24.331C59.7941 24.9489 59.1472 25.4159 58.3651 25.7321C57.5831 26.0482 56.7015 26.2063 55.7204 26.2063C54.4691 26.2063 53.3671 25.9548 52.4145 25.4518C51.4618 24.9489 50.7224 24.2519 50.1963 23.361C49.6844 22.4556 49.4284 21.4353 49.4284 20.3001C49.4284 19.1792 49.6773 18.1733 50.1749 17.2823C50.6868 16.377 51.3907 15.6728 52.2865 15.1699C53.1823 14.6669 54.1918 14.4154 55.3151 14.4154C56.4242 14.4154 57.4125 14.6669 58.2798 15.1699C59.1614 15.6585 59.8439 16.3554 60.3274 17.2608C60.825 18.1517 61.0739 19.1864 61.0739 20.3647ZM55.3151 16.571C54.462 16.571 53.7368 16.8296 53.1396 17.347C52.5566 17.8499 52.2012 18.5253 52.0732 19.3732H58.5358C58.422 18.5397 58.0736 17.8643 57.4907 17.347C56.9077 16.8296 56.1825 16.571 55.3151 16.571Z" fill="black"/>
<path d="M73.2753 20.3647C73.2753 20.5516 73.2611 20.8174 73.2327 21.1623H64.296C64.4524 22.0101 64.8576 22.6856 65.5117 23.1885C66.18 23.6771 67.0047 23.9214 67.9858 23.9214C69.2371 23.9214 70.268 23.5047 71.0785 22.6712L72.5075 24.331C71.9956 24.9489 71.3486 25.4159 70.5666 25.7321C69.7845 26.0482 68.903 26.2063 67.9218 26.2063C66.6706 26.2063 65.5686 25.9548 64.6159 25.4518C63.6632 24.9489 62.9238 24.2519 62.3977 23.361C61.8859 22.4556 61.6299 21.4353 61.6299 20.3001C61.6299 19.1792 61.8787 18.1733 62.3764 17.2823C62.8883 16.377 63.5921 15.6728 64.4879 15.1699C65.3837 14.6669 66.3933 14.4154 67.5166 14.4154C68.6257 14.4154 69.6139 14.6669 70.4813 15.1699C71.3629 15.6585 72.0454 16.3554 72.5288 17.2608C73.0265 18.1517 73.2753 19.1864 73.2753 20.3647ZM67.5166 16.571C66.6635 16.571 65.9383 16.8296 65.3411 17.347C64.7581 17.8499 64.4026 18.5253 64.2747 19.3732H70.7372C70.6235 18.5397 70.2751 17.8643 69.6921 17.347C69.1091 16.8296 68.384 16.571 67.5166 16.571Z" fill="black"/>
<path d="M83.5597 23.8998V26.0554H73.7272V24.3525L79.9765 16.7003H73.8552V14.5448H83.3891V16.2476L77.1185 23.8998H83.5597Z" fill="black"/>
<path d="M31.7345 1.89648C31.9585 1.59809 32.3795 1.53973 32.6747 1.76612L37.523 5.48374C37.8183 5.71013 37.876 6.13555 37.652 6.43395L32.1004 13.8288C31.8764 14.1272 31.4555 14.1856 31.1602 13.9592L26.3119 10.2416C26.0167 10.0152 25.9589 9.58977 26.183 9.29138L31.7345 1.89648Z" fill="#2CC9ED"/>
</svg>
