<svg width="110" height="41" viewBox="0 0 110 41" fill="none" xmlns="http://www.w3.org/2000/svg">
<path d="M8.67838 25.5722L5.61459 28.7556V33.7541H2.02637V14.207H5.61459V24.2319L15.1648 14.207H19.1946L11.0797 22.9473L19.6915 33.7541H15.496L8.67838 25.5722Z" fill="black"/>
<path d="M33.0804 26.382C33.0804 26.624 33.062 26.9684 33.0252 27.4152H21.4601C21.6625 28.5136 22.187 29.3886 23.0334 30.0401C23.8983 30.6731 24.9655 30.9896 26.2352 30.9896C27.8545 30.9896 29.1886 30.4497 30.2375 29.3699L32.0868 31.5201C31.4243 32.3206 30.5871 32.9256 29.575 33.3352C28.563 33.7447 27.4221 33.9495 26.1524 33.9495C24.5331 33.9495 23.107 33.6237 21.8741 32.9722C20.6413 32.3206 19.6844 31.4177 19.0036 30.2635C18.3411 29.0907 18.0099 27.7689 18.0099 26.2983C18.0099 24.8462 18.3319 23.5431 18.976 22.3889C19.6384 21.216 20.5493 20.3038 21.7085 19.6523C22.8678 19.0007 24.1743 18.6749 25.628 18.6749C27.0633 18.6749 28.3421 19.0007 29.4646 19.6523C30.6055 20.2852 31.4887 21.1881 32.1144 22.3609C32.7584 23.5151 33.0804 24.8555 33.0804 26.382ZM25.628 21.4674C24.5239 21.4674 23.5855 21.8024 22.8126 22.4726C22.0582 23.1242 21.5981 23.9992 21.4325 25.0975H29.7958C29.6486 24.0178 29.1978 23.1428 28.4434 22.4726C27.6889 21.8024 26.7505 21.4674 25.628 21.4674Z" fill="black"/>
<path d="M47.9938 18.8425L41.0933 34.9548C40.4493 36.5744 39.6673 37.71 38.7472 38.3616C37.8271 39.0318 36.7139 39.3668 35.4074 39.3668C34.6713 39.3668 33.9445 39.2458 33.2269 39.0038C32.5092 38.7618 31.9204 38.4267 31.4604 37.9986L32.8404 35.4295C33.1717 35.746 33.5581 35.9973 33.9997 36.1835C34.4597 36.3696 34.9198 36.4627 35.3798 36.4627C35.987 36.4627 36.4839 36.3045 36.8703 35.988C37.2751 35.6715 37.6431 35.141 37.9744 34.3963L38.2228 33.8099L31.7916 18.8425H35.3798L40.0169 29.8726L44.6816 18.8425H47.9938Z" fill="black"/>
<path d="M56.5814 18.6749C58.4399 18.6749 59.9304 19.2241 61.0528 20.3225C62.1753 21.4208 62.7365 23.0497 62.7365 25.2092V33.7541H59.2863V25.656C59.2863 24.3529 58.9827 23.3755 58.3755 22.724C57.7682 22.0538 56.9034 21.7187 55.7809 21.7187C54.5112 21.7187 53.5084 22.1096 52.7723 22.8915C52.0363 23.6548 51.6683 24.7624 51.6683 26.2145V33.7541H48.218V18.8425H51.5026V20.7692C52.0731 20.0804 52.7907 19.5592 53.6556 19.2055C54.5204 18.8518 55.4957 18.6749 56.5814 18.6749Z" fill="black"/>
<path d="M79.0373 26.382C79.0373 26.624 79.0189 26.9684 78.9821 27.4152H67.417C67.6194 28.5136 68.1438 29.3886 68.9903 30.0401C69.8551 30.6731 70.9224 30.9896 72.1921 30.9896C73.8114 30.9896 75.1454 30.4497 76.1943 29.3699L78.0436 31.5201C77.3812 32.3206 76.5439 32.9256 75.5319 33.3352C74.5198 33.7447 73.3789 33.9495 72.1093 33.9495C70.49 33.9495 69.0639 33.6237 67.831 32.9722C66.5981 32.3206 65.6413 31.4177 64.9604 30.2635C64.298 29.0907 63.9667 27.7689 63.9667 26.2983C63.9667 24.8462 64.2888 23.5431 64.9328 22.3889C65.5952 21.216 66.5061 20.3038 67.6654 19.6523C68.8246 19.0007 70.1311 18.6749 71.5848 18.6749C73.0201 18.6749 74.299 19.0007 75.4215 19.6523C76.5623 20.2852 77.4456 21.1881 78.0712 22.3609C78.7153 23.5151 79.0373 24.8555 79.0373 26.382ZM71.5848 21.4674C70.4808 21.4674 69.5423 21.8024 68.7694 22.4726C68.015 23.1242 67.555 23.9992 67.3894 25.0975H75.7527C75.6055 24.0178 75.1546 23.1428 74.4002 22.4726C73.6457 21.8024 72.7073 21.4674 71.5848 21.4674Z" fill="black"/>
<path d="M94.8274 26.382C94.8274 26.624 94.809 26.9684 94.7722 27.4152H83.2071C83.4095 28.5136 83.9339 29.3886 84.7804 30.0401C85.6452 30.6731 86.7125 30.9896 87.9822 30.9896C89.6015 30.9896 90.9356 30.4497 91.9844 29.3699L93.8337 31.5201C93.1713 32.3206 92.3341 32.9256 91.322 33.3352C90.3099 33.7447 89.1691 33.9495 87.8994 33.9495C86.2801 33.9495 84.854 33.6237 83.6211 32.9722C82.3882 32.3206 81.4314 31.4177 80.7505 30.2635C80.0881 29.0907 79.7569 27.7689 79.7569 26.2983C79.7569 24.8462 80.0789 23.5431 80.7229 22.3889C81.3854 21.216 82.2962 20.3038 83.4555 19.6523C84.6148 19.0007 85.9213 18.6749 87.3749 18.6749C88.8102 18.6749 90.0891 19.0007 91.2116 19.6523C92.3525 20.2852 93.2357 21.1881 93.8613 22.3609C94.5054 23.5151 94.8274 24.8555 94.8274 26.382ZM87.3749 21.4674C86.2709 21.4674 85.3324 21.8024 84.5596 22.4726C83.8051 23.1242 83.3451 23.9992 83.1795 25.0975H91.5428C91.3956 24.0178 90.9448 23.1428 90.1903 22.4726C89.4359 21.8024 88.4974 21.4674 87.3749 21.4674Z" fill="black"/>
<path d="M108.137 30.9616V33.7541H95.4122V31.548L103.5 21.6349H95.5778V18.8425H107.916V21.0485L99.8009 30.9616H108.137Z" fill="black"/>
<path d="M41.0679 2.45724C41.3578 2.07069 41.9025 1.99508 42.2846 2.28836L48.5589 7.10439C48.941 7.39768 49.0157 7.9488 48.7258 8.33535L41.5414 17.9152C41.2515 18.3017 40.7068 18.3773 40.3247 18.084L34.0504 13.268C33.6683 12.9747 33.5936 12.4236 33.8835 12.037L41.0679 2.45724Z" fill="#2CC9ED"/>
</svg>
