<svg width="19" height="16" viewBox="0 0 19 16" fill="none" xmlns="http://www.w3.org/2000/svg">
<path d="M8.52625 15.6415L7.2675 14.5434C5.30417 12.8254 3.60208 11.1858 2.16125 9.62465C0.720417 8.06349 0 6.43137 0 4.72829C0 3.38375 0.478958 2.25957 1.43687 1.35574C2.39479 0.451914 3.57833 0 4.9875 0C5.795 0 6.59458 0.183006 7.38625 0.54902C8.17792 0.915033 8.8825 1.51634 9.5 2.35294C10.1967 1.51634 10.9171 0.915033 11.6612 0.54902C12.4054 0.183006 13.1892 0 14.0125 0C15.4217 0 16.6052 0.451914 17.5631 1.35574C18.521 2.25957 19 3.38375 19 4.72829C19 6.43137 18.2796 8.06349 16.8388 9.62465C15.3979 11.1858 13.6958 12.8254 11.7325 14.5434L10.4737 15.6415C10.2046 15.8805 9.88 16 9.5 16C9.12 16 8.79542 15.8805 8.52625 15.6415Z" fill="#EDEDED"/>
</svg>
