<svg width="350" height="56" viewBox="0 0 350 56" fill="none" xmlns="http://www.w3.org/2000/svg">
<rect width="350" height="56" rx="14" fill="#F9E24C"/>
<path d="M139.068 21.8438C139.05 26.4932 137.626 30.6152 131.878 33.4453L130.964 32.1973C133.812 30.7998 135.508 29.1035 136.44 27.1084L131.298 27.5918L131.052 26.1504L136.958 25.7549C137.196 24.9463 137.327 24.0938 137.389 23.1973H131.878V21.8438H139.068ZM141.476 35.9766V20.2441H143.146V26.5371H145.589V27.9082H143.146V35.9766H141.476ZM154.444 21.8438C154.427 26.4932 153.003 30.6152 147.255 33.4453L146.341 32.1973C149.188 30.7998 150.885 29.1035 151.816 27.1084L146.675 27.5918L146.429 26.1504L152.335 25.7549C152.572 24.9463 152.704 24.0938 152.766 23.1973H147.255V21.8438H154.444ZM156.853 35.9766V20.2441H158.522V26.5371H160.966V27.9082H158.522V35.9766H156.853ZM168.801 21.1934C172.168 21.2021 174.62 22.8633 174.62 25.377C174.62 27.7324 172.563 29.3057 169.628 29.543V32.6367H176.044V34.0254H161.63V32.6367H167.975V29.543C165.057 29.3057 162.992 27.7324 163.001 25.377C162.992 22.8633 165.453 21.2021 168.801 21.1934ZM164.618 25.377C164.618 27.1436 166.376 28.2422 168.801 28.2598C171.245 28.2422 172.994 27.1436 173.003 25.377C172.994 23.6719 171.245 22.5469 168.801 22.5645C166.376 22.5469 164.618 23.6719 164.618 25.377ZM191.42 32.707V34.1133H177.006V32.707H183.352V29.9473H178.764V24.9375H188.01V22.7227H178.729V21.3516H189.662V26.2734H180.416V28.5762H190.032V29.9473H185.004V32.707H191.42ZM210.132 20.2441V35.9941H208.55V20.2441H210.132ZM196.509 31.4414C199.858 29.4551 201.458 26.8096 201.748 23.5664H197.283V22.1953H203.4C203.4 23.0039 203.339 23.7861 203.216 24.5508H205.334V20.6484H206.916V35.2207H205.334V29.8594H202.644V28.4883H205.334V25.9219H202.908C202.143 28.5674 200.465 30.8701 197.494 32.6367L196.509 31.4414ZM226.37 28.0664V29.4375H211.974V28.0664H218.32V25.7637H219.972V28.0664H226.37ZM212.8 25.3066C215.815 24.9199 218.293 23.1445 218.302 21.1582V20.4902H219.99V21.1582C219.981 23.1709 222.451 24.9199 225.492 25.3066L224.841 26.625C222.345 26.2207 220.139 25.0078 219.137 23.2676C218.135 25.0078 215.929 26.2207 213.415 26.625L212.8 25.3066ZM213.574 32.1445V30.8262H224.577V35.9941H222.89V32.1445H213.574ZM239.62 20.2441V26.625H242.151V28.0137H239.62V35.9941H237.968V20.2441H239.62ZM227.263 24.0762V22.7051H231.147V20.4551H232.817V22.7051H236.597V24.0762H227.263ZM228.071 28.8926C228.071 26.748 229.724 25.2363 231.991 25.2363C234.25 25.2363 235.902 26.748 235.911 28.8926C235.902 31.0547 234.25 32.5576 231.991 32.5664C229.724 32.5576 228.071 31.0547 228.071 28.8926ZM229.671 28.8926C229.662 30.2637 230.647 31.1777 231.991 31.1602C233.327 31.1777 234.303 30.2637 234.312 28.8926C234.303 27.5479 233.327 26.6162 231.991 26.6074C230.647 26.6162 229.662 27.5479 229.671 28.8926ZM255.823 20.2441V35.9941H254.135V20.2441H255.823ZM242.885 31.7754C247.069 29.7803 249.117 26.9414 249.442 23.2676H243.641V21.9316H251.13C251.13 26.5459 249.17 30.5361 243.764 33.1289L242.885 31.7754Z" fill="#3B1F1E"/>
<path fill-rule="evenodd" clip-rule="evenodd" d="M96.8107 34.7566C102.781 34.7566 107.621 31.0055 107.621 26.3783C107.621 21.7511 102.781 18 96.8107 18C90.8401 18 86 21.7511 86 26.3783C86 29.3374 87.9794 31.9382 90.9679 33.4288L90.0537 38L95.0791 34.6497C95.6429 34.7201 96.2213 34.7566 96.8107 34.7566Z" fill="#3B1F1E"/>
</svg>
