<svg width="350" height="56" viewBox="0 0 350 56" fill="none" xmlns="http://www.w3.org/2000/svg">
<rect width="350" height="56" rx="14" fill="black"/>
<path d="M133.454 34.5H131.397L135.967 21.7734H138.2L142.788 34.5H140.731L139.571 31.1426H134.614L133.454 34.5ZM135.168 29.5254H139.008L137.128 24.0938H137.04L135.168 29.5254ZM144.067 38.0859V24.9551H145.895V26.502H146.053C146.387 25.9043 147.029 24.832 148.795 24.832C151.107 24.832 152.803 26.6426 152.803 29.7539C152.803 32.8301 151.124 34.6846 148.813 34.6934C147.081 34.6846 146.396 33.6299 146.053 33.0059H145.948V38.0859H144.067ZM145.912 29.7188C145.912 31.7227 146.791 33.085 148.391 33.0938C150.043 33.085 150.905 31.6348 150.905 29.7188C150.905 27.8379 150.07 26.4229 148.391 26.4316C146.774 26.4229 145.912 27.7324 145.912 29.7188ZM154.486 38.0859V24.9551H156.314V26.502H156.473C156.807 25.9043 157.448 24.832 159.215 24.832C161.526 24.832 163.223 26.6426 163.223 29.7539C163.223 32.8301 161.544 34.6846 159.232 34.6934C157.501 34.6846 156.815 33.6299 156.473 33.0059H156.367V38.0859H154.486ZM156.332 29.7188C156.332 31.7227 157.211 33.085 158.811 33.0938C160.463 33.085 161.324 31.6348 161.324 29.7188C161.324 27.8379 160.489 26.4229 158.811 26.4316C157.193 26.4229 156.332 27.7324 156.332 29.7188ZM166.787 21.7734V34.5H164.906V21.7734H166.787ZM173.005 34.6934C170.193 34.6934 168.461 32.751 168.47 29.7891C168.461 26.8535 170.219 24.832 172.882 24.832C175.053 24.832 177.118 26.1768 177.118 29.6309V30.2988H170.333C170.386 32.1182 171.458 33.1465 173.023 33.1465C174.086 33.1465 174.781 32.6895 175.097 32.1094H176.995C176.574 33.6562 175.106 34.6934 173.005 34.6934ZM170.342 28.8926H175.273C175.273 27.4424 174.332 26.3701 172.9 26.3789C171.397 26.3701 170.421 27.5479 170.342 28.8926ZM192.653 32.707V34.1133H178.239V32.707H184.585V29.9473H179.997V24.9375H189.243V22.7227H179.962V21.3516H190.896V26.2734H181.649V28.5762H191.265V29.9473H186.237V32.707H192.653ZM211.366 20.2441V35.9941H209.784V20.2441H211.366ZM197.743 31.4414C201.091 29.4551 202.691 26.8096 202.981 23.5664H198.516V22.1953H204.633C204.633 23.0039 204.572 23.7861 204.449 24.5508H206.567V20.6484H208.149V35.2207H206.567V29.8594H203.877V28.4883H206.567V25.9219H204.141C203.376 28.5674 201.698 30.8701 198.727 32.6367L197.743 31.4414ZM227.604 28.0664V29.4375H213.207V28.0664H219.553V25.7637H221.205V28.0664H227.604ZM214.033 25.3066C217.048 24.9199 219.526 23.1445 219.535 21.1582V20.4902H221.223V21.1582C221.214 23.1709 223.684 24.9199 226.725 25.3066L226.074 26.625C223.578 26.2207 221.372 25.0078 220.37 23.2676C219.368 25.0078 217.162 26.2207 214.648 26.625L214.033 25.3066ZM214.807 32.1445V30.8262H225.811V35.9941H224.123V32.1445H214.807ZM240.853 20.2441V26.625H243.384V28.0137H240.853V35.9941H239.201V20.2441H240.853ZM228.496 24.0762V22.7051H232.381V20.4551H234.051V22.7051H237.83V24.0762H228.496ZM229.304 28.8926C229.304 26.748 230.957 25.2363 233.224 25.2363C235.483 25.2363 237.135 26.748 237.144 28.8926C237.135 31.0547 235.483 32.5576 233.224 32.5664C230.957 32.5576 229.304 31.0547 229.304 28.8926ZM230.904 28.8926C230.895 30.2637 231.88 31.1777 233.224 31.1602C234.56 31.1777 235.536 30.2637 235.545 28.8926C235.536 27.5479 234.56 26.6162 233.224 26.6074C231.88 26.6162 230.895 27.5479 230.904 28.8926ZM257.056 20.2441V35.9941H255.369V20.2441H257.056ZM244.119 31.7754C248.302 29.7803 250.35 26.9414 250.675 23.2676H244.874V21.9316H252.363C252.363 26.5459 250.403 30.5361 244.997 33.1289L244.119 31.7754Z" fill="white"/>
<path d="M96.9062 20.9633C96.7776 19.5846 97.4136 16.6618 100.987 16C101.042 17.5993 100.303 20.8309 96.9062 20.9633Z" fill="white"/>
<path fill-rule="evenodd" clip-rule="evenodd" d="M92.2739 20.6874C92.7886 20.522 94.16 20.3786 95.5276 21.1286C97.2372 22.0661 98.671 21.4595 99.057 21.1838C99.4431 20.908 100.767 20.136 102.807 20.7977C104.316 21.287 105.155 22.1906 105.448 22.6731C103.981 23.4505 102.973 25.06 102.973 26.9195C102.973 29.0039 104.239 30.7743 106 31.4104C105.437 33.7796 103.021 37.0112 101.208 37.0661C100.282 37.0942 99.7848 36.8798 99.2799 36.6623C98.7919 36.4521 98.2971 36.2389 97.4026 36.2389C96.4108 36.2389 95.8612 36.4846 95.3611 36.7082C94.9436 36.8949 94.5606 37.0661 93.9835 37.0661C92.7151 37.0661 90.3989 35.8529 88.8548 31.386C87.3107 26.9191 87.5313 22.1764 92.2739 20.6874Z" fill="white"/>
</svg>
