<svg width="34" height="32" viewBox="0 0 34 32" fill="none" xmlns="http://www.w3.org/2000/svg">
<path d="M2.62758 15.8962C1.20487 12.9141 2.59839 9.35038 5.66659 8.12436C8.73478 6.89833 12.2005 8.52038 13.2247 11.6617L15.3141 18.0706C15.595 18.9321 15.1589 19.8637 14.3175 20.1999L7.71972 22.8363C6.87828 23.1725 5.92032 22.798 5.53015 21.9801L2.62758 15.8962Z" fill="black"/>
<path d="M7.61661 26.4628C8.63979 29.0234 11.545 30.2697 14.1055 29.2465C16.6661 28.2233 17.9124 25.3181 16.8892 22.7576L16.5804 21.9849C16.4099 21.5581 15.9257 21.3504 15.499 21.5209L7.77179 24.6086C7.34503 24.7791 7.13732 25.2633 7.30785 25.6901L7.61661 26.4628Z" fill="black"/>
<path d="M21.0248 5.987C21.6639 2.74531 24.9094 0.718388 28.1028 1.56666C31.2961 2.41494 33.108 5.78533 32.0541 8.91682L29.904 15.3055C29.6149 16.1643 28.7089 16.6514 27.8332 16.4187L20.9663 14.5946C20.0906 14.362 19.5457 13.4896 19.721 12.6005L21.0248 5.987Z" fill="black"/>
<path d="M18.7213 17.4417C18.0133 20.1067 19.5999 22.841 22.2648 23.5489C24.9298 24.2568 27.6641 22.6703 28.3721 20.0053L28.5857 19.2011C28.7037 18.7569 28.4393 18.3012 27.9951 18.1832L19.9528 16.0469C19.5086 15.9289 19.0529 16.1933 18.9349 16.6375L18.7213 17.4417Z" fill="black"/>
</svg>
