<svg width="33" height="33" viewBox="0 0 33 33" fill="none" xmlns="http://www.w3.org/2000/svg">
<path d="M7.54439 28.8059C6.97284 28.8059 6.48703 28.6058 6.08694 28.2058C5.68686 27.8057 5.48682 27.3199 5.48682 26.7483V13.3741C5.48682 13.054 5.56112 12.7454 5.70972 12.4482C5.85832 12.151 6.05836 11.9109 6.30985 11.728L15.226 5.04091C15.4089 4.90374 15.6032 4.80086 15.809 4.73227C16.0147 4.66369 16.2319 4.62939 16.4605 4.62939C16.6892 4.62939 16.9064 4.66369 17.1121 4.73227C17.3179 4.80086 17.5122 4.90374 17.6951 5.04091L26.6112 11.728C26.8627 11.9109 27.0628 12.151 27.2114 12.4482C27.36 12.7454 27.4343 13.054 27.4343 13.3741V26.7483C27.4343 27.3199 27.2342 27.8057 26.8341 28.2058C26.4341 28.6058 25.9482 28.8059 25.3767 28.8059H19.204V19.2039H13.7171V28.8059H7.54439Z" fill="black"/>
</svg>
