<svg width="28" height="24" viewBox="0 0 28 24" fill="none" xmlns="http://www.w3.org/2000/svg">
<path d="M12.3159 22.536L10.4976 20.954C7.66168 18.4787 5.20308 16.1164 3.12185 13.8671C1.04062 11.6178 0 9.26625 0 6.81247C0 4.87528 0.691839 3.25556 2.07552 1.95334C3.45919 0.651113 5.16878 0 7.20427 0C8.37067 0 9.52564 0.263674 10.6692 0.791022C11.8127 1.31837 12.8305 2.18473 13.7224 3.39009C14.7287 2.18473 15.7693 1.31837 16.8443 0.791022C17.9192 0.263674 19.0513 0 20.2406 0C22.2761 0 23.9856 0.651113 25.3693 1.95334C26.753 3.25556 27.4448 4.87528 27.4448 6.81247C27.4448 9.26625 26.4042 11.6178 24.323 13.8671C22.2417 16.1164 19.7831 18.4787 16.9472 20.954L15.129 22.536C14.7402 22.8804 14.2713 23.0526 13.7224 23.0526C13.1735 23.0526 12.7047 22.8804 12.3159 22.536Z" fill="#ADADAD"/>
</svg>
