<svg width="26" height="26" viewBox="0 0 26 26" fill="none" xmlns="http://www.w3.org/2000/svg">
<path fill-rule="evenodd" clip-rule="evenodd" d="M0.100722 17.2683L2.77487 21.7533C2.95314 22.035 3.28741 22.1433 3.5994 22.035L6.9198 20.735C7.61062 21.255 8.346 21.6883 9.17053 22.0133L9.66079 25.4583C9.72765 25.7617 9.99506 26 10.3293 26H15.6776C16.0119 26 16.2793 25.7617 16.3462 25.4367L16.8364 21.9917C17.6387 21.6667 18.3963 21.2333 19.0872 20.7133L22.4076 22.0133C22.7195 22.1217 23.0538 22.0133 23.2321 21.7317L25.9062 17.2467C26.0845 16.965 25.9954 16.6183 25.7502 16.4017L22.9201 14.2567C22.987 13.845 23.0092 13.4117 23.0092 13C23.0092 12.5864 22.9686 12.1925 22.9262 11.7807C22.9242 11.7611 22.9221 11.7414 22.9201 11.7217L25.7502 9.57667C25.9954 9.38167 26.0845 9.01333 25.9062 8.73167L23.2321 4.24667C23.0538 3.965 22.7195 3.85667 22.4076 3.965L19.0872 5.265C18.3963 4.745 17.6609 4.31167 16.8364 3.98667L16.3462 0.541667C16.2793 0.238333 16.0119 0 15.6776 0H10.3293C9.99506 0 9.72765 0.238334 9.66079 0.563334L9.17053 4.00833C8.36829 4.33333 7.58833 4.745 6.9198 5.265L3.5994 3.965C3.28741 3.85667 2.95314 3.965 2.77487 4.24667L0.100722 8.73167C-0.0775541 9.01333 0.0115845 9.36 0.256714 9.57667L3.08685 11.7217C3.02 12.155 2.97543 12.5667 2.97543 13C2.97543 13.4136 3.01603 13.8075 3.05848 14.2193C3.06051 14.2389 3.06254 14.2586 3.06457 14.2783L0.234429 16.4233C-0.0107006 16.64 -0.0775541 16.9867 0.100722 17.2683ZM13.003 9.29492C15.0978 9.29492 16.8137 10.9633 16.8137 12.9999C16.8137 15.0366 15.0978 16.7049 13.003 16.7049C10.9083 16.7049 9.19235 15.0366 9.19235 12.9999C9.19235 10.9633 10.9083 9.29492 13.003 9.29492Z" fill="#ADADAD"/>
</svg>
