<svg width="26" height="26" viewBox="0 0 26 26" fill="none" xmlns="http://www.w3.org/2000/svg">
<path fill-rule="evenodd" clip-rule="evenodd" d="M0.100234 17.2688L2.77438 21.7538C2.95266 22.0355 3.28692 22.1438 3.59891 22.0355L6.91931 20.7355C7.61013 21.2555 8.34552 21.6888 9.17004 22.0138L9.66031 25.4588C9.72716 25.7622 9.99457 26.0005 10.3288 26.0005H15.6771C16.0114 26.0005 16.2788 25.7622 16.3457 25.4372L16.8359 21.9922C17.6382 21.6672 18.3958 21.2338 19.0867 20.7138L22.4071 22.0138C22.719 22.1222 23.0533 22.0138 23.2316 21.7322L25.9057 17.2472C26.084 16.9655 25.9949 16.6188 25.7497 16.4022L22.9196 14.2572C22.9865 13.8455 23.0087 13.4122 23.0087 13.0005C23.0087 12.5869 22.9681 12.193 22.9257 11.7812C22.9237 11.7616 22.9216 11.7419 22.9196 11.7222L25.7497 9.57716C25.9949 9.38216 26.084 9.01382 25.9057 8.73215L23.2316 4.24716C23.0533 3.96549 22.719 3.85715 22.4071 3.96549L19.0867 5.26549C18.3958 4.74549 17.6605 4.31216 16.8359 3.98716L16.3457 0.542155C16.2788 0.238822 16.0114 0.000488281 15.6771 0.000488281H10.3288C9.99457 0.000488281 9.72716 0.238822 9.66031 0.563822L9.17004 4.00882C8.3678 4.33382 7.58784 4.74549 6.91931 5.26549L3.59891 3.96549C3.28692 3.85715 2.95266 3.96549 2.77438 4.24716L0.100234 8.73215C-0.0780424 9.01382 0.0110962 9.36049 0.256226 9.57716L3.08636 11.7222C3.01951 12.1555 2.97494 12.5672 2.97494 13.0005C2.97494 13.4141 3.01554 13.8079 3.05799 14.2197C3.06002 14.2394 3.06205 14.2591 3.06408 14.2788L0.233941 16.4238C-0.0111889 16.6405 -0.0780424 16.9872 0.100234 17.2688ZM13.0025 9.29541C15.0973 9.29541 16.8132 10.9637 16.8132 13.0004C16.8132 15.0371 15.0973 16.7054 13.0025 16.7054C10.9078 16.7054 9.19186 15.0371 9.19186 13.0004C9.19186 10.9637 10.9078 9.29541 13.0025 9.29541Z" fill="black"/>
</svg>
